<svg width="36" height="36" viewBox="0 0 36 36" fill="none" xmlns="http://www.w3.org/2000/svg">
<path fill-rule="evenodd" clip-rule="evenodd" d="M2.63605 2.63605C-2.14577e-07 5.27207 0 9.51471 0 18C0 26.4852 -2.14577e-07 30.728 2.63605 33.3639C5.27207 36 9.51471 36 18 36C26.4852 36 30.728 36 33.3639 33.3639C36 30.728 36 26.4852 36 18C36 9.51471 36 5.27207 33.3639 2.63605C30.728 -2.14577e-07 26.4852 0 18 0C9.51471 0 5.27207 -2.14577e-07 2.63605 2.63605ZM20.6786 8.00264C21.3988 8.1956 21.8261 8.93587 21.6331 9.65605L16.9744 27.0427C16.7814 27.7628 16.0411 28.1903 15.3209 27.9974C14.6007 27.8042 14.1734 27.0641 14.3664 26.3439L19.0251 8.95723C19.2181 8.23705 19.9584 7.80966 20.6786 8.00264ZM23.3455 11.6454C23.8727 11.1182 24.7273 11.1182 25.2545 11.6454L25.6297 12.0204C26.7732 13.1639 27.7268 14.1175 28.382 14.9764C29.0738 15.8828 29.5589 16.8406 29.5589 18C29.5589 19.1594 29.0738 20.1172 28.382 21.0236C27.7268 21.8824 26.7732 22.8361 25.6297 23.9796L25.2545 24.3545C24.7273 24.8818 23.8727 24.8818 23.3455 24.3545C22.8182 23.8273 22.8182 22.9727 23.3455 22.4455L23.6542 22.1366C24.8812 20.9095 25.7035 20.0833 26.2355 19.3858C26.7439 18.7196 26.8589 18.3317 26.8589 18C26.8589 17.6683 26.7439 17.2804 26.2355 16.6142C25.7035 15.9167 24.8812 15.0905 23.6542 13.8634L23.3455 13.5546C22.8182 13.0274 22.8182 12.1726 23.3455 11.6454ZM10.7457 11.6454C11.273 11.1182 12.1277 11.1182 12.6549 11.6454C13.1821 12.1726 13.1821 13.0274 12.6549 13.5546L12.3461 13.8634C11.1191 15.0905 10.2969 15.9167 9.76478 16.6142C9.25641 17.2804 9.1415 17.6683 9.1415 18C9.1415 18.3317 9.25641 18.7196 9.76478 19.3858C10.2969 20.0833 11.1191 20.9095 12.3461 22.1366L12.6549 22.4455C13.1821 22.9727 13.1821 23.8273 12.6549 24.3545C12.1277 24.8818 11.273 24.8818 10.7457 24.3545L10.3707 23.9796C9.22711 22.8361 8.27348 21.8824 7.61823 21.0236C6.9266 20.1172 6.4415 19.1594 6.4415 18C6.4415 16.8406 6.9266 15.8828 7.61823 14.9764C8.27348 14.1175 9.22711 13.164 10.3707 12.0204L10.7457 11.6454Z" fill="#606060"/>
</svg>
