<svg width="40" height="40" viewBox="0 0 40 40" fill="none" xmlns="http://www.w3.org/2000/svg">
<path d="M18.9766 2.01804C19.5784 1.54994 20.4216 1.54994 21.0234 2.01804L36.0234 13.6841C36.4294 13.9998 36.667 14.4861 36.667 15.0005V33.3335C36.667 34.6595 36.1397 35.931 35.2021 36.8686C34.2645 37.8062 32.993 38.3334 31.667 38.3335H25V22.0005C25 20.8959 24.1046 20.0005 23 20.0005H17C15.8954 20.0005 15 20.8959 15 22.0005V38.3335H8.33301C7.00704 38.3334 5.73546 37.8062 4.79785 36.8686C3.86026 35.931 3.33304 34.6595 3.33301 33.3335V15.0005C3.33301 14.4861 3.57058 13.9998 3.97656 13.6841L18.9766 2.01804Z" fill="#66EB6E"/>
</svg>
