<svg width="36" height="37" viewBox="0 0 36 37" fill="none" xmlns="http://www.w3.org/2000/svg">
<path fill-rule="evenodd" clip-rule="evenodd" d="M21.3703 0.281644C20.6687 8.27014e-08 19.7791 0 18 0C16.2208 0 15.3312 8.27014e-08 14.6296 0.281644C13.694 0.657176 12.9507 1.37747 12.5631 2.28407C12.3862 2.69793 12.317 3.17923 12.2899 3.88128C12.2501 4.91301 11.7041 5.868 10.7814 6.38422C9.85864 6.90043 8.73215 6.88115 7.79018 6.39871C7.14917 6.0704 6.68441 5.88785 6.22608 5.82939C5.22206 5.70129 4.20665 5.96494 3.40324 6.56232C2.80068 7.01035 2.35589 7.75687 1.46633 9.24987C0.576772 10.7429 0.132002 11.4894 0.0328693 12.2191C-0.0993263 13.192 0.172758 14.1759 0.789247 14.9545C1.07063 15.3099 1.46609 15.6084 2.07985 15.9822C2.98214 16.5316 3.5627 17.4675 3.56265 18.5C3.56259 19.5325 2.98204 20.4682 2.07985 21.0175C1.46599 21.3914 1.07046 21.6901 0.789058 22.0455C0.172568 22.824 -0.0994967 23.8078 0.0326801 24.7808C0.131813 25.5104 0.576601 26.257 1.46614 27.75C2.3557 29.243 2.80049 29.9896 3.40305 30.4375C4.20646 31.0349 5.22187 31.2985 6.22589 31.1705C6.6842 31.112 7.14893 30.9294 7.78988 30.6012C8.73192 30.1187 9.85849 30.0995 10.7813 30.6157C11.704 31.132 12.2501 32.087 12.2899 33.1189C12.317 33.8208 12.3862 34.3021 12.5631 34.716C12.9507 35.6225 13.694 36.3429 14.6296 36.7184C15.3312 37 16.2208 37 18 37C19.7791 37 20.6687 37 21.3703 36.7184C22.306 36.3429 23.0493 35.6225 23.4367 34.716C23.6137 34.3021 23.683 33.8208 23.7101 33.1187C23.7499 32.087 24.2958 31.132 25.2185 30.6157C26.1413 30.0993 27.2679 30.1187 28.2099 30.6012C28.8509 30.9294 29.3155 31.1118 29.7739 31.1703C30.7779 31.2985 31.7933 31.0349 32.5966 30.4375C33.1994 29.9894 33.6441 29.243 34.5336 27.7498C35.4232 26.2569 35.8679 25.5104 35.9672 24.7808C36.0992 23.8078 35.8272 22.8238 35.2108 22.0453C34.9292 21.69 34.5338 21.3912 33.9199 21.0175C33.0178 20.4682 32.4373 19.5323 32.4373 18.4998C32.4373 17.4673 33.0178 16.5318 33.9199 15.9825C34.534 15.6086 34.9294 15.31 35.211 14.9545C35.8274 14.1761 36.0994 13.1921 35.9674 12.2192C35.8681 11.4895 35.4234 10.743 34.5338 9.25C33.6442 7.75699 33.1995 7.01048 32.5968 6.56245C31.7935 5.96507 30.7781 5.70142 29.7741 5.82952C29.3157 5.88798 28.8509 6.07052 28.2101 6.39878C27.2681 6.88124 26.1415 6.90054 25.2187 6.38428C24.296 5.86803 23.7499 4.91297 23.71 3.88119C23.6829 3.17919 23.6137 2.69791 23.4367 2.28407C23.0493 1.37747 22.306 0.657176 21.3703 0.281644ZM18 24.05C21.1632 24.05 23.7274 21.5653 23.7274 18.5C23.7274 15.4347 21.1632 12.95 18 12.95C14.8367 12.95 12.2725 15.4347 12.2725 18.5C12.2725 21.5653 14.8367 24.05 18 24.05Z" fill="#606060"/>
</svg>
